<!--?xml version="1.0" standalone="no"?-->
              <svg id="sw-js-blob-svg" viewBox="0 0 100 100" xmlns="http://www.w3.org/2000/svg" version="1.1">
                    <defs> 
                        <linearGradient id="sw-gradient" x1="0" x2="1" y1="1" y2="0">
                            <stop id="stop1" stop-color="rgba(248, 117, 55, 1)" offset="0%"></stop>
                            <stop id="stop2" stop-color="rgba(251, 168, 31, 1)" offset="100%"></stop>
                        </linearGradient>
                    </defs>
                <path fill="url(#sw-gradient)" d="M22.1,-33.7C26.3,-31.7,25.8,-21.6,26.3,-13.9C26.8,-6.2,28.5,-1,27.7,3.9C26.9,8.9,23.8,13.4,19.9,16.4C15.9,19.3,11.2,20.7,5.8,24.6C0.3,28.5,-5.9,34.9,-10.6,34.4C-15.3,33.8,-18.4,26.3,-22.2,20.2C-26,14.1,-30.3,9.6,-32.6,3.7C-35,-2.1,-35.2,-9.2,-32.4,-14.5C-29.5,-19.8,-23.4,-23.5,-17.5,-24.8C-11.6,-26.1,-5.8,-25,1.6,-27.5C8.9,-29.9,17.9,-35.8,22.1,-33.7Z" width="100%" height="100%" transform="translate(50 50)" stroke-width="0" style="transition: all 0.3s ease 0s;" stroke="url(#sw-gradient)"></path>
              </svg>