<!--?xml version="1.0" standalone="no"?-->
              <svg id="sw-js-blob-svg" viewBox="0 0 100 100" xmlns="http://www.w3.org/2000/svg" version="1.1">
                    <defs> 
                        <linearGradient id="sw-gradient" x1="0" x2="1" y1="1" y2="0">
                            <stop id="stop1" stop-color="rgba(248, 117, 55, 1)" offset="0%"></stop>
                            <stop id="stop2" stop-color="rgba(251, 168, 31, 1)" offset="100%"></stop>
                        </linearGradient>
                    </defs>
                <path fill="url(#sw-gradient)" d="M12.5,-19.6C16.3,-17,19.6,-13.7,22.9,-9.6C26.2,-5.4,29.4,-0.3,28.3,3.7C27.2,7.8,21.7,10.9,17.9,15.7C14,20.5,11.9,27,7.8,29.5C3.7,32,-2.4,30.5,-7.6,27.9C-12.7,25.4,-17,21.9,-23.5,18.2C-30,14.5,-38.7,10.7,-41,4.9C-43.4,-0.8,-39.3,-8.4,-33.4,-12.8C-27.5,-17.1,-19.9,-18.1,-14.1,-19.7C-8.2,-21.3,-4.1,-23.5,0.1,-23.7C4.4,-23.9,8.7,-22.1,12.5,-19.6Z" width="100%" height="100%" transform="translate(50 50)" stroke-width="0" style="transition: all 0.3s ease 0s;" stroke="url(#sw-gradient)"></path>
              </svg>