<?xml version="1.0" standalone="no"?>
<svg viewBox="0 0 200 200" xmlns="http://www.w3.org/2000/svg">
  <path fill="#AA8DD8" d="M43.2,-76C56.5,-67.1,68.2,-56.6,76.8,-43.7C85.4,-30.8,90.9,-15.4,90.9,0C90.9,15.4,85.4,30.8,77.3,44.6C69.2,58.4,58.5,70.6,45.2,78.9C31.9,87.3,15.9,91.8,0.6,90.9C-14.8,89.9,-29.6,83.4,-44,75.6C-58.4,67.9,-72.5,58.9,-81.2,46.1C-90,33.3,-93.5,16.6,-93.2,0.1C-93,-16.4,-89.1,-32.8,-80.4,-45.6C-71.6,-58.4,-57.9,-67.5,-43.7,-75.9C-29.5,-84.3,-14.7,-91.9,0.1,-92.1C14.9,-92.2,29.8,-84.9,43.2,-76Z" transform="translate(100 100)" />
</svg>
